<svg xmlns="http://www.w3.org/2000/svg" viewBox="0 0 360 420" role="img" aria-labelledby="title desc">
  <title id="title">AutoTest Platform stacked logo</title>
  <desc id="desc">Stacked AutoTest logo with tagline.</desc>
  <rect width="360" height="420" rx="32" fill="transparent"/>
  <g transform="translate(80 24)" fill="none" stroke="#22D3EE" stroke-width="6" stroke-linecap="round" stroke-linejoin="round">
    <path d="M40 54 L69 18 L91 57 L109 57 L131 18 L160 54 L148 124 L104 178 L96 178 L52 124 Z"/>
    <path d="M69 18 L84 76 L54 63"/><path d="M131 18 L116 76 L146 63"/>
    <path d="M84 76 L63 122 L96 178"/><path d="M116 76 L137 122 L104 178"/>
    <path d="M84 76 L100 99 L116 76"/><path d="M100 99 L96 178"/>
    <circle cx="122" cy="92" r="20"/><path d="M122 72 L134 91 L122 92 Z"/><path d="M142 92 L124 105 L122 92 Z"/><path d="M113 109 L116 88 L122 92 Z"/>
    <circle cx="122" cy="92" r="4" fill="#22D3EE" stroke="none"/>
    <path d="M139 151 L148 160 L165 138" stroke="#22C55E" stroke-width="7"/>
  </g>
  <text x="180" y="270" text-anchor="middle" fill="#0B1437" font-family="Inter, SF Pro Display, Segoe UI, Arial, sans-serif" font-size="48" font-weight="800" letter-spacing="-.8">AutoTest</text>
  <path d="M282 260 l8 8 17-22" fill="none" stroke="#22C55E" stroke-width="6" stroke-linecap="round" stroke-linejoin="round"/>
  <text x="180" y="306" text-anchor="middle" fill="#475569" font-family="Inter, SF Pro Text, Segoe UI, Arial, sans-serif" font-size="16" font-weight="500">AI-Driven Testing Platform</text>
  <text x="180" y="334" text-anchor="middle" fill="#64748B" font-family="Inter, SF Pro Text, Segoe UI, Arial, sans-serif" font-size="14">API · Web · Mobile · PC</text>
</svg>
